<svg width="320" height="132" viewBox="0 0 320 132" fill="none" xmlns="http://www.w3.org/2000/svg">
<path d="M54.7643 25.999L48.6771 32.0862C48.1487 32.6146 48.1487 33.4717 48.6771 34.0043L75.0397 60.3669C75.5681 60.8953 75.5681 61.7524 75.0397 62.285L48.6771 88.6476C48.1487 89.176 48.1487 90.0331 48.6771 90.5657L54.7643 96.6529C55.2927 97.1813 56.1498 97.1813 56.6824 96.6529L91.0503 62.285C91.5787 61.7566 91.5787 60.8994 91.0503 60.3669L56.6824 25.999C56.154 25.4706 55.2968 25.4706 54.7643 25.999Z" fill="white" fill-opacity="0.9"/>
<path d="M54.7643 25.999L48.6771 32.0862C48.1487 32.6146 48.1487 33.4717 48.6771 34.0043L75.0397 60.3669C75.5681 60.8953 75.5681 61.7524 75.0397 62.285L48.6771 88.6476C48.1487 89.176 48.1487 90.0331 48.6771 90.5657L54.7643 96.6529C55.2927 97.1813 56.1498 97.1813 56.6824 96.6529L91.0503 62.285C91.5787 61.7566 91.5787 60.8994 91.0503 60.3669L56.6824 25.999C56.154 25.4706 55.2968 25.4706 54.7643 25.999Z" fill="url(#paint0_linear_129_366)"/>
<path d="M36.4069 60.3668L50.4661 46.3076C50.9946 45.7792 50.9946 44.9221 50.4661 44.3895L44.3789 38.3023C43.8505 37.7739 42.9934 37.7739 42.4608 38.3023L20.3963 60.3668C19.8679 60.8953 19.8679 61.7524 20.3963 62.2849L42.465 84.3536C42.9934 84.882 43.8505 84.882 44.3831 84.3536L50.4703 78.2664C50.9987 77.738 50.9987 76.8809 50.4703 76.3483L36.4069 62.2849C35.8785 61.7565 35.8785 60.8994 36.4069 60.3668Z" fill="white" fill-opacity="0.9"/>
<path d="M36.4069 60.3668L50.4661 46.3076C50.9946 45.7792 50.9946 44.9221 50.4661 44.3895L44.3789 38.3023C43.8505 37.7739 42.9934 37.7739 42.4608 38.3023L20.3963 60.3668C19.8679 60.8953 19.8679 61.7524 20.3963 62.2849L42.465 84.3536C42.9934 84.882 43.8505 84.882 44.3831 84.3536L50.4703 78.2664C50.9987 77.738 50.9987 76.8809 50.4703 76.3483L36.4069 62.2849C35.8785 61.7565 35.8785 60.8994 36.4069 60.3668Z" fill="url(#paint1_linear_129_366)"/>
<path d="M125.172 32.4523H117.047C116.589 32.4523 116.214 32.8267 116.214 33.2844V89.4755C116.214 89.9332 116.589 90.3077 117.047 90.3077H151.693C152.151 90.3077 152.525 89.9332 152.525 89.4755V81.8363C152.525 81.3787 152.151 81.0042 151.693 81.0042H126.837C126.379 81.0042 126.005 80.6297 126.005 80.172V33.2844C126.005 32.8267 125.63 32.4523 125.172 32.4523Z" fill="white" fill-opacity="0.9"/>
<path d="M165.332 50.5891H157.614C157.154 50.5891 156.782 50.9617 156.782 51.4213V89.4964C156.782 89.956 157.154 90.3285 157.614 90.3285H165.332C165.792 90.3285 166.164 89.956 166.164 89.4964V51.4213C166.164 50.9617 165.792 50.5891 165.332 50.5891Z" fill="white" fill-opacity="0.9"/>
<path d="M195.373 49.4449C190.967 49.4449 186.232 51.3214 183.623 55.8899V51.4171C183.623 50.9594 183.249 50.5849 182.791 50.5849H175.235C174.777 50.5849 174.403 50.9594 174.403 51.4171V89.4922C174.403 89.9499 174.777 90.3244 175.235 90.3244H183.036C183.494 90.3244 183.869 89.9499 183.869 89.4922V67.3944C183.869 62.1727 186.723 58.0119 192.111 58.0119C198.069 58.0119 200.27 61.9272 200.27 66.8244V89.4922C200.27 89.9499 200.645 90.3244 201.102 90.3244H208.904C209.362 90.3244 209.736 89.9499 209.736 89.4922V65.1892C209.736 56.4558 205.084 49.4407 195.373 49.4407V49.4449Z" fill="white" fill-opacity="0.9"/>
<path d="M252.842 32.4982H245.286C244.828 32.4982 244.453 32.8726 244.453 33.3303V55.2409C243.23 52.7112 239.719 49.5282 232.783 49.5282C221.603 49.5282 213.851 58.9107 213.851 70.3361C213.851 82.3316 221.524 91.3064 232.945 91.3064C237.48 91.3064 241.067 89.5048 243.268 87.0541C243.759 86.5049 244.662 86.8086 244.72 87.545C244.778 88.2815 244.849 89.0346 244.919 89.6005C244.969 90.0165 245.327 90.3286 245.743 90.3286H253.154C253.645 90.3286 254.032 89.9084 253.982 89.4174C253.857 88.1234 253.674 85.7559 253.674 83.0639V33.3303C253.674 32.8726 253.299 32.4982 252.842 32.4982ZM234.006 82.9849C227.561 82.9849 223.317 77.9254 223.317 70.3361C223.317 62.7469 227.885 57.9329 234.089 57.9329C240.293 57.9329 244.533 62.6679 244.533 70.2529C244.533 77.838 240.21 82.9849 234.006 82.9849Z" fill="white" fill-opacity="0.9"/>
<path d="M290.197 51.0926L280.465 73.9768C280.182 74.6425 279.242 74.655 278.942 73.9934L268.523 51.0718C268.39 50.7764 268.091 50.585 267.766 50.585H258.941C258.325 50.585 257.926 51.2257 258.192 51.7791L274.415 85.2358C274.523 85.4605 274.527 85.7184 274.423 85.9473L265.582 105.22C265.328 105.769 265.732 106.397 266.339 106.397H274.623C274.952 106.397 275.247 106.206 275.38 105.911L299.925 51.7583C300.174 51.2091 299.771 50.5808 299.168 50.5808H290.971C290.638 50.5808 290.334 50.7805 290.205 51.0884L290.197 51.0926Z" fill="white" fill-opacity="0.9"/>
<path d="M162.977 32.6229H160.539C158.464 32.6229 156.782 34.3051 156.782 36.3801V38.8183C156.782 40.8933 158.464 42.5755 160.539 42.5755H162.977C165.052 42.5755 166.734 40.8933 166.734 38.8183V36.3801C166.734 34.3051 165.052 32.6229 162.977 32.6229Z" fill="white" fill-opacity="0.9"/>
<defs>
<linearGradient id="paint0_linear_129_366" x1="111.132" y1="-8.74753" x2="26.52" y2="43.9698" gradientUnits="userSpaceOnUse">
<stop stop-color="#16C5D0"/>
<stop offset="1" stop-color="#D5FFEC"/>
</linearGradient>
<linearGradient id="paint1_linear_129_366" x1="64.9427" y1="15.3843" x2="7.48384" y2="54.4286" gradientUnits="userSpaceOnUse">
<stop stop-color="#16C5D0"/>
<stop offset="1" stop-color="#D5FFEC"/>
</linearGradient>
</defs>
</svg>
